<?xml version="1.0" encoding="UTF-8" standalone="no"?>
<!-- Generator: Adobe Illustrator 25.4.1, SVG Export Plug-In . SVG Version: 6.00 Build 0)  -->

<svg
   version="1.1"
   id="Camada_1"
   x="0px"
   y="0px"
   viewBox="0 0 250 80"
   style="enable-background:new 0 0 250 80;"
   xml:space="preserve"
   sodipodi:docname="logo_invert.svg"
   inkscape:version="1.1 (c68e22c387, 2021-05-23)"
   xmlns:inkscape="http://www.inkscape.org/namespaces/inkscape"
   xmlns:sodipodi="http://sodipodi.sourceforge.net/DTD/sodipodi-0.dtd"
   xmlns="http://www.w3.org/2000/svg"
   xmlns:svg="http://www.w3.org/2000/svg"><defs
   id="defs94" /><sodipodi:namedview
   id="namedview92"
   pagecolor="#ffffff"
   bordercolor="#999999"
   borderopacity="1"
   inkscape:pageshadow="0"
   inkscape:pageopacity="0"
   inkscape:pagecheckerboard="0"
   showgrid="false"
   inkscape:zoom="1.7960512"
   inkscape:cx="-5.8461584"
   inkscape:cy="35.912116"
   inkscape:window-width="1920"
   inkscape:window-height="1001"
   inkscape:window-x="-9"
   inkscape:window-y="-9"
   inkscape:window-maximized="1"
   inkscape:current-layer="Camada_1" />
<style
   type="text/css"
   id="style2">
	.st0{fill:#FFFFFF;}
</style>
<text
   xml:space="preserve"
   style="font-style:normal;font-variant:normal;font-weight:normal;font-stretch:normal;font-size:29.5294px;line-height:1.25;font-family:Constantia;-inkscape-font-specification:Constantia;text-align:center;text-anchor:middle;display:inline;fill:#ffffff;stroke-width:1.23039"
   x="206.85132"
   y="20.853037"
   id="text2362"
   transform="scale(0.79666046,1.2552399)"><tspan
     sodipodi:role="line"
     style="font-style:normal;font-variant:normal;font-weight:bold;font-stretch:normal;font-family:Constantia;-inkscape-font-specification:'Constantia Bold';fill:#ffffff;stroke-width:1.23039"
     x="206.85132"
     y="20.853037"
     id="tspan22386">OLD MOTORS</tspan><tspan
     sodipodi:role="line"
     style="font-style:normal;font-variant:normal;font-weight:normal;font-stretch:normal;font-family:Constantia;-inkscape-font-specification:Constantia;fill:#ffffff;stroke-width:1.23039"
     x="206.85132"
     y="57.76479"
     id="tspan25394">MULTIMARCAS</tspan></text><ellipse
   style="display:inline;fill:#000000;fill-opacity:0;stroke:none;stroke-width:3.90249;stroke-linecap:square;stroke-linejoin:round;stroke-miterlimit:4;stroke-dasharray:none;stroke-dashoffset:0;stroke-opacity:1;paint-order:stroke fill markers"
   id="path34863"
   cx="55.716846"
   cy="66.983833"
   rx="15.423486"
   ry="13.441586" /><path
   style="display:inline;fill:#ffffff;fill-opacity:1;stroke:none;stroke-width:0.925339;stroke-linecap:square;stroke-linejoin:round;stroke-miterlimit:4;stroke-dasharray:none;stroke-dashoffset:0;stroke-opacity:1;paint-order:stroke fill markers"
   d="M 25.976855,77.836795 C 25.819822,77.795497 25.305884,77.668561 24.834802,77.554881 24.363714,77.441247 23.496468,77.180437 22.9076,76.975355 22.318733,76.770271 21.579971,76.533354 21.26591,76.44889 19.972908,76.101125 15.620481,73.498077 13.939823,72.067395 11.532382,70.018047 8.7117305,66.786944 7.1058528,64.238972 3.7437504,58.904518 1.7668043,53.554321 0.69282709,46.883527 0.16027213,43.575762 0.1519659,43.460242 0.14811398,39.32553 0.14398324,34.841346 0.20812161,34.157441 1.0582815,29.621414 1.8035757,25.644933 3.0800195,21.90042 5.0081023,18.034373 5.6525608,16.742143 6.2979607,15.532742 6.4423301,15.346782 6.5867056,15.160821 6.8108086,14.801234 6.9403529,14.547716 7.1831338,14.072539 9.5345612,10.918099 10.37236,9.9436746 13.006209,6.8803237 17.283939,3.771477 20.943121,2.261413 c 1.091594,-0.450495 2.253194,-0.868799 2.581312,-0.92958 0.328118,-0.06084 1.142631,-0.246992 1.810012,-0.413868 1.948719,-0.487234 6.961847,-0.430638 9.350497,0.105602 3.365157,0.755412 6.490188,2.173598 9.239054,4.192846 0.527572,0.387525 0.990872,0.704623 1.029555,0.704623 0.09467,0 2.228587,1.9597151 3.293186,3.024355 1.313948,1.314015 3.391759,4.023516 4.688815,6.114285 4.067815,6.556993 6.517492,15.64257 6.517492,24.172594 0,5.412212 -1.044738,11.552355 -2.794282,16.422345 -2.570774,7.155978 -7.043731,13.480986 -12.33781,17.446397 -2.636802,1.975025 -7.091349,3.966378 -10.421164,4.658653 -0.867449,0.180349 -7.294114,0.242975 -7.922933,0.07719 z m -1.294174,-7.901342 c 0.201371,-0.100055 0.494391,-0.456967 0.651157,-0.793107 0.270948,-0.580927 0.285083,-0.943993 0.285589,-7.340524 2.8e-4,-6.241778 -0.02143,-6.843464 -0.302564,-8.304486 -0.319663,-1.661267 -0.808303,-3.114167 -1.184707,-3.52252 -0.123906,-0.134423 -0.225264,-0.34943 -0.225264,-0.477741 0,-0.454458 -2.072215,-2.801975 -3.088826,-3.499226 C 19.22047,44.902154 18.241315,44.737506 13.322556,44.737464 9.7249838,44.73745 9.0787389,44.696312 9.010061,44.462217 8.9656452,44.31086 8.8506998,43.450085 8.7546758,42.549412 8.6090141,41.183208 8.515223,40.826711 8.1887722,40.398568 c -0.6943999,-0.91072 -2.0399803,-0.567125 -2.415068,0.616666 -0.1560086,0.492347 -0.1475724,0.973012 0.051918,2.964946 0.6382426,6.370645 2.9806316,12.60275 6.5179808,17.34174 1.973695,2.644175 3.763279,4.384406 6.341739,6.166877 1.156194,0.799273 1.804416,1.141815 3.936669,2.080306 1.351665,0.59491 1.535145,0.627518 2.060598,0.36635 z m 13.184385,-0.753972 c 4.841328,-2.388951 8.326985,-5.768916 11.439102,-11.092242 0.477275,-0.816388 0.867753,-1.541632 0.867753,-1.611657 0,-0.07012 0.256975,-0.630345 0.571036,-1.245183 0.31406,-0.614822 0.571017,-1.167867 0.571017,-1.229037 0,-0.06111 0.289084,-0.909209 0.642399,-1.88452 0.353315,-0.975327 0.644078,-1.880447 0.646126,-2.011378 0.0024,-0.13082 0.162636,-0.864933 0.356886,-1.631113 0.406882,-1.604964 0.431733,-2.065922 0.149741,-2.778763 -0.366836,-0.927363 -0.571191,-0.960166 -5.977476,-0.959901 -6.443355,3.65e-4 -6.912199,0.09604 -9.236702,1.886557 -1.342526,1.034097 -2.805445,3.524739 -3.469546,5.906984 l -0.454507,1.630392 -0.04453,7.074298 c -0.04853,7.720204 -0.03275,7.901079 0.74521,8.540528 0.589093,0.484157 1.25985,0.359185 3.193512,-0.594965 z M 32.258098,46.139879 c 1.607389,-1.039266 2.698162,-2.819866 3.154806,-5.150004 0.848403,-4.329168 -1.651752,-8.828914 -5.142297,-9.255006 -1.598673,-0.19516 -3.425237,0.639768 -4.474309,2.045219 -2.606836,3.492477 -2.41836,8.608156 0.422755,11.473517 1.261172,1.271956 2.071535,1.558997 4.040462,1.431156 0.989242,-0.06429 1.448999,-0.189549 1.998583,-0.544882 z M 53.40889,40.896181 c 0.560331,-0.456164 0.655313,-1.299935 0.484639,-4.305305 -0.170876,-3.008943 -0.3522,-4.219994 -1.071428,-7.155878 -1.57537,-6.43058 -4.825599,-12.178155 -9.132789,-16.150092 -1.20626,-1.112367 -1.454429,-1.297593 -3.436895,-2.56517 C 38.385064,9.5257451 37.908438,9.2966862 35.755621,8.5584849 33.449187,7.7676092 32.395716,7.6005372 29.715546,7.6005372 c -5.360429,0 -10.201687,2.1088963 -14.606502,6.3627458 -1.109801,1.071749 -3.69721,4.440267 -4.573381,5.954017 -1.5018222,2.594659 -2.9177893,6.020481 -3.6024666,8.715818 -0.4735111,1.864095 -0.4509693,2.416723 0.1317122,3.23217 0.4838999,0.677184 0.7549506,0.693246 3.2540334,0.192861 11.783153,-2.359309 27.00538,-2.389589 38.509506,-0.07663 l 1.438264,0.289175 0.251682,1.707887 c 0.13844,0.939337 0.305749,2.704859 0.371837,3.923378 0.111033,2.04867 0.14924,2.255182 0.506745,2.742996 0.5514,0.752392 1.283923,0.843854 2.011914,0.251204 z M 8.1302044,37.350752 C 8.5580614,36.984264 8.8314688,35.953395 8.7153565,35.144324 8.5355024,33.890966 7.4060054,33.201544 6.5170268,33.80251 5.959412,34.179461 5.7769254,34.615794 5.7769254,35.572121 c 0,0.932697 0.2253362,1.603881 0.6229949,1.855585 0.4629735,0.293041 1.3440684,0.253864 1.7302841,-0.07691 z"
   id="path41126" /><g
   id="g89"
   transform="translate(-439.85382,-92.424981)">
	<g
   id="XMLID_00000091017043180016562000000011777822356817717140_">
		<g
   id="g10">
			<g
   id="g5">
				<path
   id="XMLID_00000168109616508926759340000006464242467899258781_"
   class="st0"
   d="m 23.6,29.47 1.81,1.21 0.31,1.99 5.07,1.94 1.75,-0.7 -0.5,4.44 2.22,-6.06 z" />
			</g>
			<g
   id="g8">
				<path
   id="XMLID_00000006709559847202640300000011057228842385377695_"
   class="st0"
   d="m 41.2,32.3 2.22,6.06 -0.5,-4.44 1.75,0.7 5.07,-1.94 0.31,-1.99 1.81,-1.21 z" />
			</g>
		</g>
		<g
   id="g48">
			<g
   id="g16">
				<polygon
   class="st0"
   points="69.56,40.93 54.33,40.93 49.86,45.11 49.93,45.79 66.85,55.56 "
   id="polygon12" />
				<polygon
   class="st0"
   points="50.9,56.41 49.01,57.42 54.62,67.15 66.08,57.46 50.15,48.26 "
   id="polygon14" />
			</g>
			<g
   id="g26">
				<polygon
   class="st0"
   points="25.59,45.11 21.12,40.93 5.89,40.93 8.61,55.56 25.53,45.79 "
   id="polygon18" />
				<g
   id="g24">
					<polygon
   class="st0"
   points="24.56,56.41 25.3,48.26 9.37,57.46 20.83,67.15 26.45,57.42 "
   id="polygon20" />
					<path
   class="st0"
   d="m 47.22,58.38 -2.36,1.27 -6.24,-2.36 v -4.23 l 5.8,-4.42 -5.39,-1.11 -1.29,0.78 -1.29,-0.78 -5.39,1.11 5.8,4.42 v 4.23 l -6.24,2.36 -2.36,-1.27 -5.83,10.1 8.95,7.57 c 1.56,1.32 3.43,2.07 5.35,2.27 V 66.65 l -5.47,-5.82 6.49,-1.05 6.49,1.05 -5.47,5.82 v 11.66 c 1.92,-0.2 3.79,-0.95 5.35,-2.27 l 8.95,-7.57 z"
   id="path22" />
				</g>
			</g>
			<g
   id="g40">
				<polygon
   class="st0"
   points="58.02,37.49 56.51,38.9 69.94,38.9 73.36,20.52 56.62,30.18 "
   id="polygon28" />
				<g
   id="g38">
					<g
   id="g34">
						<path
   class="st0"
   d="M 56.48,5.4 56.43,5.37 C 53.08,3.63 49.37,2.72 45.59,2.72 h -6.85 v 17.64 c 2.61,-1.4 6.12,-3.29 6.31,-3.41 0.11,-0.07 1.55,1.03 3.34,2.46 z"
   id="path30" />
						<path
   class="st0"
   d="m 58.29,6.34 -8.3,14.36 c 2.79,2.26 5.72,4.7 5.72,4.7 l 0.51,2.66 17.63,-10.18 0.01,-0.03 C 74.2,16 73.3,14.14 71.63,13.28 Z"
   id="path32" />
					</g>
					<path
   class="st0"
   d="m 36.71,2.72 h -6.85 c -3.77,0 -7.49,0.91 -10.84,2.65 l -0.05,0.03 8.09,14.01 c 1.79,-1.43 3.24,-2.53 3.34,-2.46 0.18,0.12 3.7,2.01 6.31,3.41 z"
   id="path36" />
				</g>
			</g>
			<g
   id="g46">
				<path
   class="st0"
   d="m 19.23,28.07 0.51,-2.66 c 0,0 2.93,-2.44 5.72,-4.7 L 17.17,6.34 3.83,13.28 C 2.16,14.15 1.26,16 1.6,17.85 l 0.01,0.03 z"
   id="path42" />
				<polygon
   class="st0"
   points="2.09,20.52 5.51,38.9 18.94,38.9 17.43,37.49 18.83,30.18 "
   id="polygon44" />
			</g>
		</g>
	</g>
	<g
   id="XMLID_00000083049438475342813190000010525724814764129207_">
		<g
   id="XMLID_00000013192598205308506370000013917122698907594659_">
			<path
   class="st0"
   d="m 87.22,15.57 h 3.56 v 25.36 h -3.56 z m 2.79,14.24 11.2,-14.23 h 4.38 l -16.1,19.57 z m 4.22,-2.41 2.81,-2.6 9.61,16.13 h -4.36 z"
   id="path51" />
			<path
   class="st0"
   d="m 113.7,40.93 h -3.56 V 15.57 h 3.56 z"
   id="path53" />
			<path
   class="st0"
   d="m 119.97,15.57 h 3.23 l 12.4,19.6 -0.42,0.45 V 15.57 h 3.52 v 25.34 h -3.26 l -12.37,-19.31 0.42,-0.45 v 19.76 h -3.52 V 15.57 Z"
   id="path55" />
			<path
   class="st0"
   d="m 162.32,27.28 v 4.43 c 0,1.88 -0.37,3.54 -1.1,4.98 -0.73,1.44 -1.77,2.55 -3.11,3.33 -1.34,0.79 -2.9,1.18 -4.67,1.18 -1.79,0 -3.36,-0.37 -4.72,-1.11 -1.36,-0.74 -2.4,-1.78 -3.15,-3.13 -0.75,-1.35 -1.12,-2.91 -1.12,-4.69 v -7.48 c 0,-1.88 0.37,-3.54 1.1,-4.97 0.73,-1.43 1.77,-2.54 3.11,-3.32 1.34,-0.78 2.9,-1.18 4.67,-1.18 1.45,0 2.79,0.31 4.02,0.93 1.23,0.62 2.25,1.5 3.08,2.64 0.83,1.14 1.38,2.46 1.67,3.96 h -3.85 c -0.21,-0.85 -0.56,-1.58 -1.06,-2.19 -0.5,-0.61 -1.09,-1.08 -1.76,-1.4 -0.67,-0.32 -1.37,-0.48 -2.09,-0.48 -1.05,0 -1.96,0.25 -2.75,0.75 -0.79,0.5 -1.4,1.2 -1.83,2.1 -0.43,0.9 -0.65,1.95 -0.65,3.15 v 7.48 c 0,1.09 0.22,2.05 0.66,2.87 0.44,0.82 1.07,1.46 1.88,1.91 0.81,0.45 1.74,0.68 2.8,0.68 1.05,0 1.96,-0.24 2.75,-0.71 0.79,-0.47 1.4,-1.15 1.83,-2.05 0.43,-0.9 0.64,-1.96 0.64,-3.19 v -1.1 h -5.14 v -3.4 h 8.79 z"
   id="path57" />
			<path
   class="st0"
   d="m 168.08,15.57 h 3.56 v 25.36 h -3.56 z m 2.4,21.98 h 5.74 c 1.87,0 3.32,-0.49 4.35,-1.46 1.03,-0.97 1.54,-2.34 1.54,-4.11 v -7.46 c 0,-1.77 -0.51,-3.14 -1.54,-4.11 -1.03,-0.97 -2.48,-1.46 -4.35,-1.46 h -5.74 v -3.38 h 5.63 c 2.03,0 3.77,0.35 5.21,1.06 1.44,0.71 2.54,1.74 3.3,3.1 0.76,1.36 1.13,3 1.13,4.92 v 7.19 c 0,1.92 -0.38,3.56 -1.13,4.92 -0.75,1.36 -1.86,2.39 -3.3,3.1 -1.45,0.71 -3.19,1.06 -5.22,1.06 h -5.62 z"
   id="path59" />
			<path
   class="st0"
   d="m 195.23,40.03 c -1.35,-0.77 -2.39,-1.87 -3.13,-3.28 -0.74,-1.41 -1.11,-3.05 -1.11,-4.91 v -7.19 c 0,-1.86 0.37,-3.5 1.11,-4.91 0.74,-1.41 1.78,-2.51 3.13,-3.28 1.35,-0.77 2.91,-1.16 4.67,-1.16 1.77,0 3.33,0.39 4.67,1.16 1.35,0.77 2.39,1.87 3.13,3.28 0.74,1.41 1.11,3.05 1.11,4.91 v 7.19 c 0,1.86 -0.37,3.5 -1.11,4.91 -0.74,1.41 -1.78,2.51 -3.13,3.28 -1.35,0.77 -2.91,1.16 -4.67,1.16 -1.76,0 -3.32,-0.38 -4.67,-1.16 z m 7.44,-3.05 c 0.8,-0.47 1.41,-1.14 1.85,-2.01 0.44,-0.87 0.65,-1.87 0.65,-3.01 v -7.43 c 0,-1.14 -0.22,-2.14 -0.65,-3.01 -0.44,-0.87 -1.05,-1.54 -1.85,-2.01 -0.8,-0.47 -1.72,-0.71 -2.76,-0.71 -1.05,0 -1.97,0.24 -2.76,0.71 -0.8,0.47 -1.41,1.14 -1.85,2.01 -0.44,0.87 -0.65,1.87 -0.65,3.01 v 7.43 c 0,1.14 0.22,2.14 0.65,3.01 0.44,0.87 1.05,1.54 1.85,2.01 0.8,0.47 1.72,0.71 2.76,0.71 1.04,0 1.96,-0.24 2.76,-0.71 z"
   id="path61" />
			<path
   class="st0"
   d="m 232.8,15.57 h 3.33 v 25.36 h -3.47 V 21.94 l 0.17,1.12 -6.24,14.35 h -2.48 l -6.24,-14 0.17,-1.46 v 18.99 h -3.47 V 15.57 h 3.33 l 7.45,16.74 z"
   id="path63" />
			<path
   class="st0"
   d="m 97.84,52.2 h 2.15 V 68.53 H 97.76 V 56.3 l 0.11,0.72 -4.02,9.24 H 92.26 L 88.24,57.24 88.35,56.3 V 68.53 H 86.1 V 52.2 h 2.15 l 4.8,10.78 z"
   id="path65" />
			<path
   class="st0"
   d="m 106.44,67.99 c -0.86,-0.48 -1.51,-1.17 -1.96,-2.08 -0.45,-0.91 -0.67,-2 -0.67,-3.29 V 52.2 h 2.29 v 10.5 c 0,1.19 0.3,2.11 0.9,2.76 0.6,0.65 1.44,0.98 2.54,0.98 1.1,0 1.95,-0.33 2.55,-0.98 0.6,-0.65 0.9,-1.57 0.9,-2.76 V 52.2 h 2.29 v 10.42 c 0,1.28 -0.22,2.38 -0.67,3.29 -0.45,0.91 -1.1,1.6 -1.97,2.08 -0.87,0.48 -1.9,0.71 -3.11,0.71 -1.21,0 -2.24,-0.24 -3.09,-0.71 z"
   id="path67" />
			<path
   class="st0"
   d="m 119.1,52.2 h 2.29 v 16.33 h -2.29 z m 1.14,14.15 h 9.34 v 2.18 h -9.34 v -2.18 z"
   id="path69" />
			<path
   class="st0"
   d="m 130.04,52.2 h 11.52 v 2.18 h -11.52 z m 4.61,1.34 h 2.29 v 14.99 h -2.29 z"
   id="path71" />
			<path
   class="st0"
   d="m 145.65,68.53 h -2.29 V 52.2 h 2.29 z"
   id="path73" />
			<path
   class="st0"
   d="m 161.43,52.2 h 2.14 v 16.33 h -2.23 V 56.3 l 0.11,0.72 -4.02,9.24 h -1.59 l -4.02,-9.02 0.11,-0.94 v 12.23 h -2.24 V 52.2 h 2.15 l 4.79,10.78 z"
   id="path75" />
			<path
   class="st0"
   d="m 172.06,52.2 h 1.95 l 6.02,16.33 h -2.47 l -4.53,-13.17 -4.53,13.17 h -2.47 z m -3.24,10.57 h 8.59 v 2.18 h -8.59 z"
   id="path77" />
			<path
   class="st0"
   d="m 182.5,52.19 h 2.29 v 16.34 h -2.29 z m 1,7.26 h 5.57 c 0.43,0 0.82,-0.1 1.16,-0.31 0.34,-0.21 0.6,-0.51 0.78,-0.89 0.18,-0.39 0.28,-0.83 0.28,-1.33 0,-0.5 -0.09,-0.95 -0.28,-1.33 -0.18,-0.39 -0.44,-0.68 -0.77,-0.89 -0.33,-0.21 -0.72,-0.31 -1.16,-0.31 h -5.57 v -2.18 h 5.48 c 0.94,0 1.77,0.19 2.49,0.58 0.71,0.39 1.27,0.94 1.66,1.66 0.39,0.71 0.59,1.54 0.59,2.48 0,0.94 -0.2,1.76 -0.6,2.48 -0.4,0.71 -0.95,1.27 -1.67,1.66 -0.71,0.39 -1.54,0.58 -2.48,0.58 h -5.48 v -2.2 z m 4.45,1.67 2.28,-0.52 4.18,7.93 h -2.72 z"
   id="path79" />
			<path
   class="st0"
   d="m 199.86,67.95 c -0.86,-0.5 -1.52,-1.21 -1.99,-2.13 -0.47,-0.92 -0.71,-1.99 -0.71,-3.2 v -4.48 c 0,-1.21 0.24,-2.28 0.71,-3.2 0.47,-0.92 1.14,-1.63 1.99,-2.14 0.86,-0.51 1.85,-0.76 2.98,-0.76 0.94,0 1.8,0.2 2.58,0.6 0.78,0.4 1.44,0.97 1.97,1.7 0.53,0.73 0.89,1.58 1.07,2.55 h -2.35 c -0.14,-0.51 -0.38,-0.96 -0.71,-1.36 -0.33,-0.4 -0.72,-0.71 -1.17,-0.93 -0.45,-0.22 -0.91,-0.33 -1.39,-0.33 -0.67,0 -1.25,0.16 -1.75,0.48 -0.5,0.32 -0.89,0.77 -1.17,1.35 -0.28,0.58 -0.42,1.26 -0.42,2.03 v 4.48 c 0,0.76 0.14,1.44 0.42,2.02 0.28,0.58 0.67,1.03 1.17,1.35 0.5,0.32 1.08,0.48 1.75,0.48 0.49,0 0.95,-0.1 1.4,-0.3 0.45,-0.2 0.83,-0.5 1.17,-0.9 0.33,-0.4 0.57,-0.87 0.71,-1.42 h 2.35 c -0.19,0.97 -0.55,1.82 -1.08,2.55 -0.53,0.73 -1.19,1.3 -1.98,1.7 -0.79,0.4 -1.64,0.6 -2.57,0.6 -1.13,0.01 -2.12,-0.24 -2.98,-0.74 z"
   id="path81" />
			<path
   class="st0"
   d="m 216.17,52.2 h 1.95 l 6.02,16.33 h -2.47 l -4.53,-13.17 -4.53,13.17 h -2.47 z m -3.24,10.57 h 8.59 v 2.18 h -8.59 z"
   id="path83" />
			<path
   class="st0"
   d="m 229.29,68.47 c -0.7,-0.15 -1.36,-0.37 -1.97,-0.67 -0.61,-0.3 -1.18,-0.67 -1.71,-1.12 l 1.43,-1.75 c 0.62,0.54 1.31,0.94 2.05,1.21 0.75,0.27 1.56,0.4 2.44,0.4 1.18,0 2.1,-0.22 2.75,-0.66 0.65,-0.44 0.98,-1.06 0.98,-1.86 v -0.01 c 0,-0.57 -0.15,-1.02 -0.44,-1.35 -0.29,-0.33 -0.68,-0.58 -1.15,-0.74 -0.47,-0.16 -1.07,-0.31 -1.81,-0.44 -0.02,-0.01 -0.05,-0.01 -0.07,-0.01 -0.03,0 -0.05,0 -0.07,-0.01 l -0.17,-0.03 c -1.09,-0.19 -1.98,-0.4 -2.67,-0.63 -0.69,-0.24 -1.27,-0.67 -1.76,-1.29 -0.49,-0.62 -0.73,-1.51 -0.73,-2.67 v -0.01 c 0,-1.01 0.23,-1.87 0.68,-2.59 0.45,-0.71 1.11,-1.26 1.98,-1.63 0.87,-0.38 1.91,-0.56 3.13,-0.56 0.58,0 1.16,0.06 1.72,0.19 0.56,0.13 1.12,0.32 1.67,0.57 0.55,0.25 1.09,0.57 1.62,0.95 l -1.3,1.82 c -0.62,-0.46 -1.24,-0.8 -1.86,-1.03 -0.62,-0.23 -1.24,-0.34 -1.86,-0.34 -1.12,0 -1.98,0.22 -2.6,0.67 -0.62,0.45 -0.93,1.08 -0.93,1.89 v 0.01 c 0,0.56 0.16,1 0.48,1.33 0.32,0.32 0.72,0.56 1.19,0.71 0.48,0.15 1.14,0.31 1.98,0.48 0.03,0.01 0.06,0.01 0.08,0.02 0.03,0 0.05,0.01 0.08,0.02 0.04,0.01 0.08,0.02 0.12,0.02 0.04,0.01 0.09,0.01 0.12,0.02 0.99,0.2 1.81,0.44 2.48,0.72 0.66,0.28 1.22,0.72 1.66,1.34 0.45,0.62 0.67,1.46 0.67,2.53 v 0.02 c 0,1 -0.24,1.85 -0.71,2.55 -0.47,0.71 -1.15,1.25 -2.05,1.62 -0.89,0.37 -1.97,0.56 -3.24,0.56 -0.76,-0.02 -1.5,-0.1 -2.21,-0.25 z"
   id="path85" />
		</g>
	</g>
</g>
</svg>
